<svg data-v-23d2c5be="" version="1.0" xmlns="http://www.w3.org/2000/svg" xmlns:xlink="http://www.w3.org/1999/xlink" width="100%" height="100%" viewBox="0 0 340.000000 250.000000" preserveAspectRatio="xMidYMid meet" color-interpolation-filters="sRGB" class="el-tooltip" style="margin: auto;"><rect data-v-23d2c5be="" x="0" y="0" width="100%" height="100%" fill="#001233" fill-opacity="1" class="background"></rect>  <g data-v-23d2c5be="" fill="#ffffff" class="icon-text-wrapper icon-svg-group iconsvg" transform="translate(55.849998474121094,104.4285717010498)"><g class="iconsvg-imagesvg" transform="translate(0,0)"><rect fill="#ffffff" fill-opacity="0" stroke-width="2" x="0" y="0" width="45" height="41.14285628988136" class="image-rect"></rect> <svg filter="url(#colors3279063766)" x="0" y="0" width="45" height="41.14285628988136" filtersec="colorsf7147753484" class="image-svg-svg primary"><svg fill="#000000" xmlns="http://www.w3.org/2000/svg" xmlns:xlink="http://www.w3.org/1999/xlink" version="1.1" x="0px" y="0px" viewBox="11.899999618530273 13.199999809265137 80.5 73.5999984741211" style="enable-background:new 0 0 100 100;" xml:space="preserve"><g><rect x="11.9" y="39.5" width="8" height="20.9"></rect></g><g><rect x="30" y="25.6" width="8" height="48.9"></rect></g><g><rect x="48.1" y="13.2" width="8" height="73.6"></rect></g><g><rect x="84.4" y="39.5" width="8" height="20.9"></rect></g><g><rect x="66.3" y="25.6" width="8" height="48.9"></rect></g></svg></svg> <defs><filter id="colors3279063766"><feColorMatrix type="matrix" values="0 0 0 0 0.99609375  0 0 0 0 0.99609375  0 0 0 0 0.99609375  0 0 0 1 0" class="icon-fecolormatrix"></feColorMatrix></filter> <filter id="colorsf7147753484"><feColorMatrix type="matrix" values="0 0 0 0 0.99609375  0 0 0 0 0.99609375  0 0 0 0 0.99609375  0 0 0 1 0" class="icon-fecolormatrix"></feColorMatrix></filter> <filter id="colorsb8483773749"><feColorMatrix type="matrix" values="0 0 0 0 0  0 0 0 0 0  0 0 0 0 0  0 0 0 1 0" class="icon-fecolormatrix"></feColorMatrix></filter></defs></g> <g transform="translate(50,2.5714282989501953)"><g fill-rule="" class="tp-name iconsvg-namesvg"><g><path d="M3.85-11.15L7-18.80L13-18.80L12.35-17.15L18.80-17.15L19.25-20.30L5.70-20.30L7.40-32.60L5.90-34.60L44.55-34.60L42.55-20.30L29.35-20.30L28.90-17.15L42.25-17.15L41.60-12.65L28.25-12.65L27.95-10.50L41.25-10.50L40.65-6.20L27.35-6.20L27.15-4.70L42.70-4.70L42.10-0.45L1.45-0.45L2.05-4.70L17.05-4.70L17.25-6.20L5.15-6.20L5.75-10.50L17.85-10.50L18.15-12.65L10.60-12.65L10.05-11.15L3.85-11.15ZM16.90-30.90L16.65-29.40L34.30-29.40L34.55-30.90L16.90-30.90ZM15.95-24.30L33.60-24.30L33.80-25.75L16.15-25.75L15.95-24.30ZM75.15-20.85L81.65-20.85L82.15-19.45L89.10-19.45L88.65-16.10L82.50-16.10L82.25-14.25L88.45-14.25L87.95-10.80L81.75-10.80L81.50-9L87.70-9L87.25-5.70L81-5.70L80.75-3.80L86.95-3.80L86.50-0.45L68.55-0.45L68.45 0.40L62.65 0.40L64.70-13.95L62.70-13.30L63.45-18.60L71.50-20.95L71.25-19.45L75.55-19.45L75.15-20.85ZM47.90-22.30L52.50-22.30L54.10-33.60L52.75-35.50L60.50-35.50L58.60-22.30L63.15-22.30L62.50-17.60L60.65-17.60L59-5.85L60.25-5.85L61.90-7.40L60.90-0.60L52.70-0.60L55.10-17.60L54.40-17.60L50.25-0.05L44.70-0.05L48.85-17.60L47.25-17.60L47.90-22.30ZM70.35-21.75L71.90-24.35L72.90-31.40L65.25-31.40L65.70-34.55L78.25-34.55L76.75-23.85Q76.55-22.70 76-22.23Q75.45-21.75 74.45-21.75L74.45-21.75L70.35-21.75ZM83.10-21.75L84.95-24.30L85.95-31.40L78.65-31.40L79.10-34.55L91.30-34.55L89.80-23.80Q89.60-22.65 89.08-22.20Q88.55-21.75 87.55-21.75L87.55-21.75L83.10-21.75ZM59.05-23.75L61.20-32L60.30-33.25L65-33.25L62.40-23.75L59.05-23.75ZM52.80-33.30L52.35-23.75L48.95-23.75L49.40-33.30L52.80-33.30ZM66.55-26.10L71.20-26.10L69.45-21.80L64.60-21.80L66.55-26.10ZM79.60-26.05L84-26.05L82.40-21.75L77.90-21.75L79.60-26.05ZM65.85-30.70L70.75-30.70L71.25-26.85L66.60-26.85L65.85-30.70ZM79.15-30.70L83.55-30.70L84.10-26.85L79.70-26.85L79.15-30.70ZM69.30-5.70L69.05-3.80L74.10-3.80L74.35-5.70L69.30-5.70ZM70.80-16.10L70.55-14.25L75.60-14.25L75.85-16.10L70.80-16.10ZM70.05-10.80L69.80-9L74.85-9L75.10-10.80L70.05-10.80ZM91.40-5.40L116.25-5.40L117.25-9.45L93.80-9.45L101.60-29.85L96.60-29.85L97.30-34.65L135.25-34.65L134.55-29.85L110.60-29.85L109.20-26.30L130.65-26.30L126-5.40L133.15-5.40L132.45-0.60L90.70-0.60L91.40-5.40ZM107.70-21.40L105.10-14.35L118.55-14.35L120.40-21.40L107.70-21.40ZM157.35-11.35L156.45-5.15L154.50-4.95L153.75 0.45L147.10 0.45L147.75-4.30L136.25-3.25L137.10-9.45L138.50-9.55L141.35-29.85L140-29.85L140.65-34.60L159.65-34.60L159-29.85L158-29.85L155.40-11.15L157.35-11.35ZM157.65-20.35L162.75-20.35L164.35-25.10L159.25-25.10L159.95-29.85L162.10-29.85L161.75-34.35L160.75-35.55L168.35-35.55L168.70-29.85L171-29.85L173.05-35.55L179.75-35.55L177.70-29.85L178.95-29.85L178.25-25.10L173.30-25.10L171.70-20.35L178.55-20.35L177.90-15.60L173.15-15.60L175.60 0.45L167.60 0.45L166.35-7.50L163.65 0.45L155.65 0.45L161.10-15.60L157-15.60L157.65-20.35ZM146.95-22.25L146.40-18.45L149.75-18.45L150.30-22.25L146.95-22.25ZM145.75-13.70L145.25-10.20L148.65-10.50L149.10-13.70L145.75-13.70ZM148-29.85L147.60-27L150.95-27L151.35-29.85L148-29.85Z" transform="translate(-1.4500000000000002, 35.550000000000004)"></path></g> <!----> <!----> <!----> <!----> <!----> <!----> <!----></g> <!----></g></g></svg>