<svg data-v-23d2c5be="" version="1.0" xmlns="http://www.w3.org/2000/svg" xmlns:xlink="http://www.w3.org/1999/xlink" width="100%" height="100%" viewBox="0 0 340.000000 250.000000" preserveAspectRatio="xMidYMid meet" color-interpolation-filters="sRGB" class="el-tooltip" style="margin: auto;"><rect data-v-23d2c5be="" x="0" y="0" width="100%" height="100%" fill="rgba(0,0,0,0)" fill-opacity="1" class="" style="
    background: transparent;
"></rect>  <g data-v-23d2c5be="" fill="#000000" class="icon-text-wrapper icon-svg-group iconsvg" transform="translate(62.415000915527344,101.76550102233887)"><g class="iconsvg-imagesvg" transform="translate(0,0.6630706787109375)"><rect fill="#000000" fill-opacity="0" stroke-width="2" x="0" y="0" width="45" height="41.14285628988136" class="image-rect"></rect> <svg filter="url(#colors9273306035)" x="0" y="0" width="45" height="41.14285628988136" filtersec="colorsf3833337904" class="image-svg-svg primary"><svg fill="#000000" xmlns="http://www.w3.org/2000/svg" xmlns:xlink="http://www.w3.org/1999/xlink" version="1.1" x="0px" y="0px" viewBox="11.899999618530273 13.199999809265137 80.5 73.5999984741211" style="enable-background:new 0 0 100 100;" xml:space="preserve"><g><rect x="11.9" y="39.5" width="8" height="20.9"></rect></g><g><rect x="30" y="25.6" width="8" height="48.9"></rect></g><g><rect x="48.1" y="13.2" width="8" height="73.6"></rect></g><g><rect x="84.4" y="39.5" width="8" height="20.9"></rect></g><g><rect x="66.3" y="25.6" width="8" height="48.9"></rect></g></svg></svg> <defs><filter id="colors9273306035"><feColorMatrix type="matrix" values="0 0 0 0 0  0 0 0 0 0  0 0 0 0 0  0 0 0 1 0" class="icon-fecolormatrix"></feColorMatrix></filter> <filter id="colorsf3833337904"><feColorMatrix type="matrix" values="0 0 0 0 0.99609375  0 0 0 0 0.99609375  0 0 0 0 0.99609375  0 0 0 1 0" class="icon-fecolormatrix"></feColorMatrix></filter> <filter id="colorsb1790822309"><feColorMatrix type="matrix" values="0 0 0 0 0  0 0 0 0 0  0 0 0 0 0  0 0 0 1 0" class="icon-fecolormatrix"></feColorMatrix></filter></defs></g> <g transform="translate(52,0)" mask="url(#3990fe51-ba2c-40cf-9909-c0667f5eae04)"><g fill-rule="" class="tp-name iconsvg-namesvg" transform="translate(0,0)"><g><path d="M3.46-10.04L6.30-16.92L11.70-16.92L11.12-15.43L16.92-15.43L17.32-18.27L5.13-18.27L6.66-29.34L5.31-31.14L40.09-31.14L38.30-18.27L26.41-18.27L26.01-15.43L38.02-15.43L37.44-11.38L25.43-11.38L25.15-9.45L37.13-9.45L36.59-5.58L24.61-5.58L24.43-4.23L38.43-4.23L37.89-0.40L1.30-0.40L1.84-4.23L15.34-4.23L15.52-5.58L4.63-5.58L5.17-9.45L16.06-9.45L16.34-11.38L9.54-11.38L9.04-10.04L3.46-10.04ZM15.21-27.81L14.98-26.46L30.87-26.46L31.09-27.81L15.21-27.81ZM14.35-21.87L30.24-21.87L30.42-23.18L14.54-23.18L14.35-21.87ZM68.53-18.77L74.38-18.77L74.84-17.50L81.09-17.50L80.69-14.49L75.15-14.49L74.92-12.82L80.50-12.82L80.06-9.72L74.47-9.72L74.25-8.10L79.83-8.10L79.42-5.13L73.80-5.13L73.57-3.42L79.16-3.42L78.75-0.40L62.59-0.40L62.50 0.36L57.28 0.36L59.13-12.55L57.33-11.97L58.00-16.74L65.25-18.86L65.03-17.50L68.89-17.50L68.53-18.77ZM44.01-20.07L48.15-20.07L49.59-30.24L48.38-31.95L55.35-31.95L53.64-20.07L57.73-20.07L57.15-15.84L55.48-15.84L54-5.26L55.13-5.26L56.61-6.66L55.71-0.54L48.33-0.54L50.49-15.84L49.86-15.84L46.13-0.04L41.13-0.04L44.86-15.84L43.42-15.84L44.01-20.07ZM64.22-19.57L65.61-21.91L66.51-28.26L59.63-28.26L60.03-31.09L71.32-31.09L69.97-21.46Q69.80-20.43 69.30-20.00Q68.80-19.57 67.91-19.57L67.91-19.57L64.22-19.57ZM75.69-19.57L77.35-21.87L78.25-28.26L71.69-28.26L72.09-31.09L83.07-31.09L81.72-21.42Q81.54-20.38 81.07-19.98Q80.59-19.57 79.69-19.57L79.69-19.57L75.69-19.57ZM54.05-21.38L55.98-28.80L55.17-29.92L59.40-29.92L57.06-21.38L54.05-21.38ZM48.42-29.97L48.02-21.38L44.95-21.38L45.36-29.97L48.42-29.97ZM60.80-23.49L64.98-23.49L63.41-19.62L59.04-19.62L60.80-23.49ZM72.54-23.45L76.50-23.45L75.06-19.57L71.01-19.57L72.54-23.45ZM60.16-27.63L64.58-27.63L65.03-24.16L60.84-24.16L60.16-27.63ZM72.13-27.63L76.09-27.63L76.59-24.16L72.63-24.16L72.13-27.63ZM63.27-5.13L63.05-3.42L67.59-3.42L67.81-5.13L63.27-5.13ZM64.62-14.49L64.39-12.82L68.94-12.82L69.16-14.49L64.62-14.49ZM63.94-9.72L63.72-8.10L68.27-8.10L68.49-9.72L63.94-9.72ZM84.06-4.86L106.42-4.86L107.32-8.50L86.22-8.50L93.24-26.86L88.74-26.86L89.37-31.18L123.53-31.18L122.89-26.86L101.34-26.86L100.08-23.67L119.38-23.67L115.20-4.86L121.63-4.86L121.00-0.54L83.43-0.54L84.06-4.86ZM98.73-19.26L96.39-12.91L108.50-12.91L110.16-19.26L98.73-19.26ZM144.31-10.21L143.50-4.63L141.75-4.46L141.07 0.40L135.09 0.40L135.67-3.87L125.32-2.92L126.09-8.50L127.35-8.59L129.91-26.86L128.70-26.86L129.28-31.14L146.38-31.14L145.80-26.86L144.90-26.86L142.56-10.04L144.31-10.21ZM144.58-18.31L149.17-18.31L150.61-22.59L146.02-22.59L146.65-26.86L148.59-26.86L148.27-30.91L147.38-31.99L154.21-31.99L154.53-26.86L156.60-26.86L158.44-31.99L164.47-31.99L162.63-26.86L163.75-26.86L163.13-22.59L158.67-22.59L157.23-18.31L163.39-18.31L162.81-14.04L158.53-14.04L160.74 0.40L153.54 0.40L152.41-6.75L149.98 0.40L142.78 0.40L147.69-14.04L144-14.04L144.58-18.31ZM134.95-20.02L134.46-16.61L137.47-16.61L137.97-20.02L134.95-20.02ZM133.88-12.33L133.42-9.18L136.48-9.45L136.89-12.33L133.88-12.33ZM135.90-26.86L135.54-24.30L138.55-24.30L138.91-26.86L135.90-26.86Z" transform="translate(-1.305, 31.994999999999997)"></path></g> <!----> <!----> <!----> <!----> <!----> <!----> <!----></g> <g fill-rule="" hollow-target="t-name" class="tp-slogan iconsvg-slogansvg" fill="#000000" transform="translate(0,36.38999938964844)"><rect x="0" height="1" y="4.539999961853027" width="26.53499984741211"></rect> <rect height="1" y="4.539999961853027" width="26.53499984741211" x="136.6349983215332"></rect> <g transform="translate(29.53499984741211,0)"><path d="M0.04 0L2.23-2.89L0.12-5.84L1.92-5.84L3.16-4.12L4.34-5.84L6.24-5.84L4.06-2.89L6.24 0L4.34 0L3.16-1.67L1.92 0L0.04 0ZM7.08 0L7.08-5.84L8.69-5.84L8.69 0L7.08 0ZM8.69-6.44L7.08-6.44L7.08-8.00L8.69-8.00L8.69-6.44ZM10.27 0L10.27-5.84L13.37-5.84Q14.06-5.84 14.43-5.74Q14.80-5.64 15.10-5.38L15.10-5.38Q15.71-4.81 15.71-3.60L15.71-3.60L15.71 0L14.10 0L14.10-3.78Q14.10-4.21 13.91-4.40Q13.72-4.60 13.27-4.60L13.27-4.60L11.88-4.60L11.88 0L10.27 0ZM19.81-5.84L22.81-5.84L22.81-0.04Q22.81 0.46 22.70 0.84Q22.58 1.22 22.37 1.49L22.37 1.49Q22.09 1.82 21.70 1.95Q21.31 2.08 20.57 2.08L20.57 2.08L17.36 2.08L17.36 0.83L20.35 0.83Q20.88 0.83 21.04 0.67Q21.20 0.50 21.20 0L21.20 0L19.73 0Q19.02 0 18.56-0.15Q18.10-0.30 17.72-0.65L17.72-0.65Q16.85-1.48 16.85-2.93L16.85-2.93Q16.85-4.58 17.92-5.34L17.92-5.34Q18.30-5.62 18.73-5.73Q19.15-5.84 19.81-5.84L19.81-5.84ZM21.20-1.25L21.20-4.60L19.87-4.60Q18.48-4.60 18.48-2.92L18.48-2.92Q18.48-2.10 18.86-1.67Q19.24-1.25 19.96-1.25L19.96-1.25L21.20-1.25ZM26.89-1.25L28.21-1.25L28.21-5.84L29.82-5.84L29.82-0.12Q29.82 1.02 29.22 1.55Q28.62 2.08 27.31 2.08L27.31 2.08L24.44 2.08L24.44 0.83L27.31 0.83Q27.83 0.83 27.98 0.72L27.98 0.72Q28.10 0.65 28.14 0.53Q28.18 0.42 28.21 0L28.21 0L26.78 0Q24.31 0.06 24.44-2.58L24.44-2.58L24.44-5.84L26.05-5.84L26.05-2.74Q26.05-1.82 26.21-1.54Q26.38-1.25 26.89-1.25L26.89-1.25ZM33.32-3.55L35.29-3.55Q35.29-4.16 35.05-4.38Q34.80-4.60 34.07-4.60L34.07-4.60L31.36-4.60L31.36-5.84L34.07-5.84Q34.80-5.84 35.08-5.81Q35.35-5.78 35.64-5.70L35.64-5.70Q36.97-5.20 36.90-3.29L36.90-3.29L36.90 0L33.52 0Q32.60 0 32.26-0.05Q31.91-0.11 31.64-0.28L31.64-0.28Q30.94-0.76 30.94-1.73L30.94-1.73Q30.94-2.32 31.22-2.78Q31.50-3.24 31.97-3.41L31.97-3.41Q32.38-3.55 33.32-3.55L33.32-3.55ZM35.29-1.25L35.29-2.30L33.44-2.30L33.17-2.30Q32.89-2.30 32.73-2.16Q32.57-2.02 32.57-1.76L32.57-1.76Q32.57-1.49 32.77-1.37Q32.96-1.25 33.44-1.25L33.44-1.25L35.29-1.25ZM41.10-5.93L41.10-5.93Q42.72-5.93 43.49-4.99L43.49-4.99Q44.20-4.14 44.20-2.84L44.20-2.84Q44.20-1.48 43.31-0.66L43.31-0.66Q42.49 0.08 41.08 0.08L41.08 0.08Q39.61 0.08 38.78-0.76L38.78-0.76Q38.02-1.51 38.02-2.96L38.02-2.96Q38.02-4.19 38.75-5.00L38.75-5.00Q39.56-5.92 41.10-5.93ZM41.11-4.70L41.11-4.70Q39.66-4.70 39.66-2.90L39.66-2.90Q39.66-2.17 39.90-1.79L39.90-1.79Q40.30-1.14 41.12-1.14L41.12-1.14Q42.55-1.14 42.55-2.93L42.55-2.93Q42.55-4.68 41.11-4.70ZM45.38-8.00L46.99-8.00L46.99-5.84L48.64-5.84Q49.37-5.84 49.78-5.73Q50.20-5.62 50.48-5.33L50.48-5.33Q51.04-4.82 51.04-3.64L51.04-3.64L51.04 0L49.43 0L49.43-3.32Q49.43-3.79 49.39-3.99Q49.34-4.19 49.21-4.33L49.21-4.33Q48.97-4.58 48.30-4.60L48.30-4.60L46.99-4.60L46.99 0L45.38 0L45.38-8.00ZM54.84-1.25L56.35-1.25L56.35-5.84L57.96-5.84L57.96 0L54.79 0Q54.11 0 53.74-0.10Q53.36-0.20 53.08-0.47L53.08-0.47Q52.46-1.02 52.46-2.26L52.46-2.26L52.46-5.84L54.06-5.84L54.06-2.09Q54.06-1.69 54.27-1.47Q54.48-1.25 54.84-1.25L54.84-1.25ZM61.14-8.00L61.14 0L59.53 0L59.53-8.00L61.14-8.00ZM62.72 0L62.72-5.84L64.33-5.84L64.33 0L62.72 0ZM64.33-6.44L62.72-6.44L62.72-8.00L64.33-8.00L64.33-6.44ZM67.98-3.55L69.95-3.55Q69.95-4.16 69.70-4.38Q69.46-4.60 68.72-4.60L68.72-4.60L66.01-4.60L66.01-5.84L68.72-5.84Q69.46-5.84 69.73-5.81Q70.01-5.78 70.30-5.70L70.30-5.70Q71.63-5.20 71.56-3.29L71.56-3.29L71.56 0L68.17 0Q67.26 0 66.91-0.05Q66.56-0.11 66.30-0.28L66.30-0.28Q65.59-0.76 65.59-1.73L65.59-1.73Q65.59-2.32 65.87-2.78Q66.16-3.24 66.62-3.41L66.62-3.41Q67.03-3.55 67.98-3.55L67.98-3.55ZM69.95-1.25L69.95-2.30L68.10-2.30L67.82-2.30Q67.55-2.30 67.39-2.16Q67.22-2.02 67.22-1.76L67.22-1.76Q67.22-1.49 67.42-1.37Q67.62-1.25 68.10-1.25L68.10-1.25L69.95-1.25ZM73.06 0L73.06-5.84L76.15-5.84Q76.85-5.84 77.21-5.74Q77.58-5.64 77.88-5.38L77.88-5.38Q78.49-4.81 78.49-3.60L78.49-3.60L78.49 0L76.88 0L76.88-3.78Q76.88-4.21 76.69-4.40Q76.50-4.60 76.06-4.60L76.06-4.60L74.66-4.60L74.66 0L73.06 0ZM79.82-1.56L81.28-1.56L81.28 0L79.82 0L79.82-1.56ZM85.37-5.84L87.56-5.84L87.56-4.60L85.64-4.60Q84.67-4.60 84.30-4.16L84.30-4.16Q83.94-3.76 83.94-2.92L83.94-2.92Q83.94-1.98 84.53-1.55L84.53-1.55Q84.77-1.38 85.05-1.31Q85.33-1.25 85.84-1.25L85.84-1.25L87.56-1.25L87.56 0L85.37 0Q84.48 0 83.96-0.18Q83.45-0.36 83.05-0.80L83.05-0.80Q82.30-1.64 82.30-2.94L82.30-2.94Q82.30-4.50 83.20-5.27L83.20-5.27Q83.56-5.58 84.06-5.71Q84.56-5.84 85.37-5.84L85.37-5.84ZM91.49-5.93L91.49-5.93Q93.11-5.93 93.88-4.99L93.88-4.99Q94.58-4.14 94.58-2.84L94.58-2.84Q94.58-1.48 93.70-0.66L93.70-0.66Q92.88 0.08 91.46 0.08L91.46 0.08Q90.00 0.08 89.17-0.76L89.17-0.76Q88.40-1.51 88.40-2.96L88.40-2.96Q88.40-4.19 89.14-5.00L89.14-5.00Q89.95-5.92 91.49-5.93ZM91.50-4.70L91.50-4.70Q90.05-4.70 90.05-2.90L90.05-2.90Q90.05-2.17 90.29-1.79L90.29-1.79Q90.68-1.14 91.51-1.14L91.51-1.14Q92.94-1.14 92.94-2.93L92.94-2.93Q92.94-4.68 91.50-4.70ZM95.77 0L95.77-5.84L101.68-5.84Q102.48-5.84 102.90-5.72Q103.32-5.60 103.61-5.30L103.61-5.30Q104.14-4.73 104.14-3.72L104.14-3.72L104.14 0L102.53 0L102.53-3.47Q102.53-3.89 102.49-4.06Q102.46-4.22 102.32-4.36L102.32-4.36Q102.07-4.60 101.57-4.60L101.57-4.60L100.72-4.60L100.72 0L99.11 0L99.11-4.60L97.38-4.60L97.38 0L95.77 0Z" transform="translate(-0.036000000000000004, 8.004)"></path></g></g></g></g><mask id="3990fe51-ba2c-40cf-9909-c0667f5eae04"><g fill-rule="" class="tp-name iconsvg-namesvg" transform="translate(0,0)" fill="white"><g><path d="M3.46-10.04L6.30-16.92L11.70-16.92L11.12-15.43L16.92-15.43L17.32-18.27L5.13-18.27L6.66-29.34L5.31-31.14L40.09-31.14L38.30-18.27L26.41-18.27L26.01-15.43L38.02-15.43L37.44-11.38L25.43-11.38L25.15-9.45L37.13-9.45L36.59-5.58L24.61-5.58L24.43-4.23L38.43-4.23L37.89-0.40L1.30-0.40L1.84-4.23L15.34-4.23L15.52-5.58L4.63-5.58L5.17-9.45L16.06-9.45L16.34-11.38L9.54-11.38L9.04-10.04L3.46-10.04ZM15.21-27.81L14.98-26.46L30.87-26.46L31.09-27.81L15.21-27.81ZM14.35-21.87L30.24-21.87L30.42-23.18L14.54-23.18L14.35-21.87ZM68.53-18.77L74.38-18.77L74.84-17.50L81.09-17.50L80.69-14.49L75.15-14.49L74.92-12.82L80.50-12.82L80.06-9.72L74.47-9.72L74.25-8.10L79.83-8.10L79.42-5.13L73.80-5.13L73.57-3.42L79.16-3.42L78.75-0.40L62.59-0.40L62.50 0.36L57.28 0.36L59.13-12.55L57.33-11.97L58.00-16.74L65.25-18.86L65.03-17.50L68.89-17.50L68.53-18.77ZM44.01-20.07L48.15-20.07L49.59-30.24L48.38-31.95L55.35-31.95L53.64-20.07L57.73-20.07L57.15-15.84L55.48-15.84L54-5.26L55.13-5.26L56.61-6.66L55.71-0.54L48.33-0.54L50.49-15.84L49.86-15.84L46.13-0.04L41.13-0.04L44.86-15.84L43.42-15.84L44.01-20.07ZM64.22-19.57L65.61-21.91L66.51-28.26L59.63-28.26L60.03-31.09L71.32-31.09L69.97-21.46Q69.80-20.43 69.30-20.00Q68.80-19.57 67.91-19.57L67.91-19.57L64.22-19.57ZM75.69-19.57L77.35-21.87L78.25-28.26L71.69-28.26L72.09-31.09L83.07-31.09L81.72-21.42Q81.54-20.38 81.07-19.98Q80.59-19.57 79.69-19.57L79.69-19.57L75.69-19.57ZM54.05-21.38L55.98-28.80L55.17-29.92L59.40-29.92L57.06-21.38L54.05-21.38ZM48.42-29.97L48.02-21.38L44.95-21.38L45.36-29.97L48.42-29.97ZM60.80-23.49L64.98-23.49L63.41-19.62L59.04-19.62L60.80-23.49ZM72.54-23.45L76.50-23.45L75.06-19.57L71.01-19.57L72.54-23.45ZM60.16-27.63L64.58-27.63L65.03-24.16L60.84-24.16L60.16-27.63ZM72.13-27.63L76.09-27.63L76.59-24.16L72.63-24.16L72.13-27.63ZM63.27-5.13L63.05-3.42L67.59-3.42L67.81-5.13L63.27-5.13ZM64.62-14.49L64.39-12.82L68.94-12.82L69.16-14.49L64.62-14.49ZM63.94-9.72L63.72-8.10L68.27-8.10L68.49-9.72L63.94-9.72ZM84.06-4.86L106.42-4.86L107.32-8.50L86.22-8.50L93.24-26.86L88.74-26.86L89.37-31.18L123.53-31.18L122.89-26.86L101.34-26.86L100.08-23.67L119.38-23.67L115.20-4.86L121.63-4.86L121.00-0.54L83.43-0.54L84.06-4.86ZM98.73-19.26L96.39-12.91L108.50-12.91L110.16-19.26L98.73-19.26ZM144.31-10.21L143.50-4.63L141.75-4.46L141.07 0.40L135.09 0.40L135.67-3.87L125.32-2.92L126.09-8.50L127.35-8.59L129.91-26.86L128.70-26.86L129.28-31.14L146.38-31.14L145.80-26.86L144.90-26.86L142.56-10.04L144.31-10.21ZM144.58-18.31L149.17-18.31L150.61-22.59L146.02-22.59L146.65-26.86L148.59-26.86L148.27-30.91L147.38-31.99L154.21-31.99L154.53-26.86L156.60-26.86L158.44-31.99L164.47-31.99L162.63-26.86L163.75-26.86L163.13-22.59L158.67-22.59L157.23-18.31L163.39-18.31L162.81-14.04L158.53-14.04L160.74 0.40L153.54 0.40L152.41-6.75L149.98 0.40L142.78 0.40L147.69-14.04L144-14.04L144.58-18.31ZM134.95-20.02L134.46-16.61L137.47-16.61L137.97-20.02L134.95-20.02ZM133.88-12.33L133.42-9.18L136.48-9.45L136.89-12.33L133.88-12.33ZM135.90-26.86L135.54-24.30L138.55-24.30L138.91-26.86L135.90-26.86Z" transform="translate(-1.305, 31.994999999999997)"></path></g>       </g> <rect fill="#000" x="0" y="0" width="167.1699981689453" height="14.079999923706055" transform="translate(-2, 34.38999938964844)"></rect><g fill-rule="" hollow-target="t-name" class="tp-slogan iconsvg-slogansvg" transform="translate(0,36.38999938964844)" fill="#fff"><rect x="0" height="1" y="4.539999961853027" width="26.53499984741211"></rect> <rect height="1" y="4.539999961853027" width="26.53499984741211" x="136.6349983215332"></rect> <g transform="translate(29.53499984741211,0)"><path d="M0.04 0L2.23-2.89L0.12-5.84L1.92-5.84L3.16-4.12L4.34-5.84L6.24-5.84L4.06-2.89L6.24 0L4.34 0L3.16-1.67L1.92 0L0.04 0ZM7.08 0L7.08-5.84L8.69-5.84L8.69 0L7.08 0ZM8.69-6.44L7.08-6.44L7.08-8.00L8.69-8.00L8.69-6.44ZM10.27 0L10.27-5.84L13.37-5.84Q14.06-5.84 14.43-5.74Q14.80-5.64 15.10-5.38L15.10-5.38Q15.71-4.81 15.71-3.60L15.71-3.60L15.71 0L14.10 0L14.10-3.78Q14.10-4.21 13.91-4.40Q13.72-4.60 13.27-4.60L13.27-4.60L11.88-4.60L11.88 0L10.27 0ZM19.81-5.84L22.81-5.84L22.81-0.04Q22.81 0.46 22.70 0.84Q22.58 1.22 22.37 1.49L22.37 1.49Q22.09 1.82 21.70 1.95Q21.31 2.08 20.57 2.08L20.57 2.08L17.36 2.08L17.36 0.83L20.35 0.83Q20.88 0.83 21.04 0.67Q21.20 0.50 21.20 0L21.20 0L19.73 0Q19.02 0 18.56-0.15Q18.10-0.30 17.72-0.65L17.72-0.65Q16.85-1.48 16.85-2.93L16.85-2.93Q16.85-4.58 17.92-5.34L17.92-5.34Q18.30-5.62 18.73-5.73Q19.15-5.84 19.81-5.84L19.81-5.84ZM21.20-1.25L21.20-4.60L19.87-4.60Q18.48-4.60 18.48-2.92L18.48-2.92Q18.48-2.10 18.86-1.67Q19.24-1.25 19.96-1.25L19.96-1.25L21.20-1.25ZM26.89-1.25L28.21-1.25L28.21-5.84L29.82-5.84L29.82-0.12Q29.82 1.02 29.22 1.55Q28.62 2.08 27.31 2.08L27.31 2.08L24.44 2.08L24.44 0.83L27.31 0.83Q27.83 0.83 27.98 0.72L27.98 0.72Q28.10 0.65 28.14 0.53Q28.18 0.42 28.21 0L28.21 0L26.78 0Q24.31 0.06 24.44-2.58L24.44-2.58L24.44-5.84L26.05-5.84L26.05-2.74Q26.05-1.82 26.21-1.54Q26.38-1.25 26.89-1.25L26.89-1.25ZM33.32-3.55L35.29-3.55Q35.29-4.16 35.05-4.38Q34.80-4.60 34.07-4.60L34.07-4.60L31.36-4.60L31.36-5.84L34.07-5.84Q34.80-5.84 35.08-5.81Q35.35-5.78 35.64-5.70L35.64-5.70Q36.97-5.20 36.90-3.29L36.90-3.29L36.90 0L33.52 0Q32.60 0 32.26-0.05Q31.91-0.11 31.64-0.28L31.64-0.28Q30.94-0.76 30.94-1.73L30.94-1.73Q30.94-2.32 31.22-2.78Q31.50-3.24 31.97-3.41L31.97-3.41Q32.38-3.55 33.32-3.55L33.32-3.55ZM35.29-1.25L35.29-2.30L33.44-2.30L33.17-2.30Q32.89-2.30 32.73-2.16Q32.57-2.02 32.57-1.76L32.57-1.76Q32.57-1.49 32.77-1.37Q32.96-1.25 33.44-1.25L33.44-1.25L35.29-1.25ZM41.10-5.93L41.10-5.93Q42.72-5.93 43.49-4.99L43.49-4.99Q44.20-4.14 44.20-2.84L44.20-2.84Q44.20-1.48 43.31-0.66L43.31-0.66Q42.49 0.08 41.08 0.08L41.08 0.08Q39.61 0.08 38.78-0.76L38.78-0.76Q38.02-1.51 38.02-2.96L38.02-2.96Q38.02-4.19 38.75-5.00L38.75-5.00Q39.56-5.92 41.10-5.93ZM41.11-4.70L41.11-4.70Q39.66-4.70 39.66-2.90L39.66-2.90Q39.66-2.17 39.90-1.79L39.90-1.79Q40.30-1.14 41.12-1.14L41.12-1.14Q42.55-1.14 42.55-2.93L42.55-2.93Q42.55-4.68 41.11-4.70ZM45.38-8.00L46.99-8.00L46.99-5.84L48.64-5.84Q49.37-5.84 49.78-5.73Q50.20-5.62 50.48-5.33L50.48-5.33Q51.04-4.82 51.04-3.64L51.04-3.64L51.04 0L49.43 0L49.43-3.32Q49.43-3.79 49.39-3.99Q49.34-4.19 49.21-4.33L49.21-4.33Q48.97-4.58 48.30-4.60L48.30-4.60L46.99-4.60L46.99 0L45.38 0L45.38-8.00ZM54.84-1.25L56.35-1.25L56.35-5.84L57.96-5.84L57.96 0L54.79 0Q54.11 0 53.74-0.10Q53.36-0.20 53.08-0.47L53.08-0.47Q52.46-1.02 52.46-2.26L52.46-2.26L52.46-5.84L54.06-5.84L54.06-2.09Q54.06-1.69 54.27-1.47Q54.48-1.25 54.84-1.25L54.84-1.25ZM61.14-8.00L61.14 0L59.53 0L59.53-8.00L61.14-8.00ZM62.72 0L62.72-5.84L64.33-5.84L64.33 0L62.72 0ZM64.33-6.44L62.72-6.44L62.72-8.00L64.33-8.00L64.33-6.44ZM67.98-3.55L69.95-3.55Q69.95-4.16 69.70-4.38Q69.46-4.60 68.72-4.60L68.72-4.60L66.01-4.60L66.01-5.84L68.72-5.84Q69.46-5.84 69.73-5.81Q70.01-5.78 70.30-5.70L70.30-5.70Q71.63-5.20 71.56-3.29L71.56-3.29L71.56 0L68.17 0Q67.26 0 66.91-0.05Q66.56-0.11 66.30-0.28L66.30-0.28Q65.59-0.76 65.59-1.73L65.59-1.73Q65.59-2.32 65.87-2.78Q66.16-3.24 66.62-3.41L66.62-3.41Q67.03-3.55 67.98-3.55L67.98-3.55ZM69.95-1.25L69.95-2.30L68.10-2.30L67.82-2.30Q67.55-2.30 67.39-2.16Q67.22-2.02 67.22-1.76L67.22-1.76Q67.22-1.49 67.42-1.37Q67.62-1.25 68.10-1.25L68.10-1.25L69.95-1.25ZM73.06 0L73.06-5.84L76.15-5.84Q76.85-5.84 77.21-5.74Q77.58-5.64 77.88-5.38L77.88-5.38Q78.49-4.81 78.49-3.60L78.49-3.60L78.49 0L76.88 0L76.88-3.78Q76.88-4.21 76.69-4.40Q76.50-4.60 76.06-4.60L76.06-4.60L74.66-4.60L74.66 0L73.06 0ZM79.82-1.56L81.28-1.56L81.28 0L79.82 0L79.82-1.56ZM85.37-5.84L87.56-5.84L87.56-4.60L85.64-4.60Q84.67-4.60 84.30-4.16L84.30-4.16Q83.94-3.76 83.94-2.92L83.94-2.92Q83.94-1.98 84.53-1.55L84.53-1.55Q84.77-1.38 85.05-1.31Q85.33-1.25 85.84-1.25L85.84-1.25L87.56-1.25L87.56 0L85.37 0Q84.48 0 83.96-0.18Q83.45-0.36 83.05-0.80L83.05-0.80Q82.30-1.64 82.30-2.94L82.30-2.94Q82.30-4.50 83.20-5.27L83.20-5.27Q83.56-5.58 84.06-5.71Q84.56-5.84 85.37-5.84L85.37-5.84ZM91.49-5.93L91.49-5.93Q93.11-5.93 93.88-4.99L93.88-4.99Q94.58-4.14 94.58-2.84L94.58-2.84Q94.58-1.48 93.70-0.66L93.70-0.66Q92.88 0.08 91.46 0.08L91.46 0.08Q90.00 0.08 89.17-0.76L89.17-0.76Q88.40-1.51 88.40-2.96L88.40-2.96Q88.40-4.19 89.14-5.00L89.14-5.00Q89.95-5.92 91.49-5.93ZM91.50-4.70L91.50-4.70Q90.05-4.70 90.05-2.90L90.05-2.90Q90.05-2.17 90.29-1.79L90.29-1.79Q90.68-1.14 91.51-1.14L91.51-1.14Q92.94-1.14 92.94-2.93L92.94-2.93Q92.94-4.68 91.50-4.70ZM95.77 0L95.77-5.84L101.68-5.84Q102.48-5.84 102.90-5.72Q103.32-5.60 103.61-5.30L103.61-5.30Q104.14-4.73 104.14-3.72L104.14-3.72L104.14 0L102.53 0L102.53-3.47Q102.53-3.89 102.49-4.06Q102.46-4.22 102.32-4.36L102.32-4.36Q102.07-4.60 101.57-4.60L101.57-4.60L100.72-4.60L100.72 0L99.11 0L99.11-4.60L97.38-4.60L97.38 0L95.77 0Z" transform="translate(-0.036000000000000004, 8.004)"></path></g></g></mask></svg>